<?xml version="1.0" standalone="no"?>
<!DOCTYPE svg PUBLIC "-//W3C//DTD SVG 20010904//EN"
 "http://www.w3.org/TR/2001/REC-SVG-20010904/DTD/svg10.dtd">
<svg version="1.0" xmlns="http://www.w3.org/2000/svg"
 width="200.000000pt" height="200.000000pt" viewBox="0 0 200.000000 200.000000"
 preserveAspectRatio="xMidYMid meet">
<metadata>
Created by potrace 1.11, written by Peter Selinger 2001-2013
</metadata>
<g transform="translate(0.000000,200.000000) scale(0.100000,-0.100000)"
fill="#000000" stroke="none">
<path d="M1227 1140 c-42 -33 -60 -77 -61 -152 -1 -36 0 -65 3 -63 2 2 12 -6
22 -18 17 -20 18 -20 19 -4 0 17 3 16 30 -6 35 -30 61 -26 90 11 15 18 20 20
20 9 0 -23 36 -40 57 -28 11 6 24 6 35 0 20 -11 58 2 78 26 12 15 11 16 -14 9
-29 -7 -46 6 -45 36 0 10 3 8 8 -5 8 -19 8 -19 20 4 7 12 10 25 8 28 -13 12
-45 -10 -60 -42 -11 -23 -21 -33 -31 -29 -20 8 -29 35 -16 48 8 8 9 5 4 -9 -7
-18 -6 -18 9 -6 9 7 17 20 17 27 0 23 -27 16 -49 -12 l-21 -27 0 25 c0 14 -9
37 -20 51 -19 24 -19 26 -3 55 14 24 15 37 8 59 -14 38 -68 44 -108 13z m63
-31 c11 -20 5 -77 -7 -66 -3 4 -14 2 -24 -3 -15 -9 -18 -5 -21 22 -4 31 -4 32
-10 8 -4 -14 -10 -47 -13 -74 -7 -54 -21 -51 -30 5 -14 87 71 173 105 108z
m-2 -121 c28 -31 40 -78 19 -78 -8 0 -22 12 -32 26 -13 21 -19 23 -31 13 -20
-17 -27 -6 -19 30 8 37 33 41 63 9z"/>
<path d="M410 1004 c0 -78 4 -123 10 -119 5 3 19 35 30 71 11 36 23 71 27 77
11 18 22 -23 22 -86 1 -80 17 -70 53 33 17 47 33 88 36 92 4 4 7 -24 8 -63 0
-38 7 -81 14 -94 17 -32 53 -42 83 -22 19 12 24 12 35 1 10 -11 18 -11 32 -4
14 8 25 7 40 -2 17 -11 25 -10 50 4 21 12 30 13 31 5 0 -7 4 -3 9 8 7 15 9 16
9 4 1 -19 35 -31 49 -17 6 6 17 5 30 -3 17 -10 24 -10 45 4 17 11 28 12 35 5
11 -11 52 -2 52 13 0 5 8 9 18 9 14 0 15 -2 2 -10 -8 -5 -10 -10 -5 -10 6 0 6
-3 -1 -8 -40 -27 -57 -99 -29 -122 17 -14 31 -7 38 19 3 13 -1 21 -14 24 -12
3 -16 11 -12 26 3 12 10 24 16 28 6 4 7 -4 3 -21 -4 -18 -3 -25 4 -21 5 3 10
18 9 33 -1 15 1 34 5 43 4 10 3 20 -2 23 -6 3 -8 16 -5 29 4 21 4 21 -8 2 -24
-40 -44 -40 -59 -1 -7 20 -8 20 -20 -6 -7 -16 -21 -28 -31 -28 -21 0 -34 29
-19 44 8 8 9 5 5 -9 -7 -20 -6 -20 9 -1 20 24 20 36 2 36 -8 0 -28 -17 -44
-37 -30 -37 -30 -38 -51 -19 -19 17 -20 43 -1 31 4 -3 13 2 19 9 13 16 -2 32
-19 21 -12 -7 -12 -4 -1 52 10 51 0 73 -23 54 -12 -10 -16 -33 -16 -92 0 -64
-3 -80 -17 -87 -10 -5 -24 -7 -30 -5 -15 5 -17 43 -3 43 6 0 10 -5 10 -11 0
-8 5 -8 15 1 8 7 12 16 9 21 -11 19 -43 8 -67 -22 -28 -36 -52 -34 -66 3 l-8
23 -8 -25 c-15 -47 -46 -47 -70 0 -16 32 -23 65 -26 133 -2 28 -7 47 -15 47
-6 0 -24 -35 -39 -77 -34 -98 -45 -110 -46 -52 -1 57 -8 102 -18 112 -8 8 -43
-77 -57 -136 -11 -48 -17 -21 -15 68 2 55 -2 85 -8 85 -7 0 -11 -44 -11 -126z
m494 29 c-8 -52 -14 -54 -14 -5 0 23 4 42 10 42 6 0 7 -15 4 -37z"/>
<path d="M716 1021 c-7 -11 18 -33 27 -24 4 3 7 12 7 20 0 15 -26 18 -34 4z"/>
<path d="M1300 822 c0 -18 5 -29 14 -29 18 0 17 29 -1 46 -10 9 -13 6 -13 -17z"/>
<path d="M637 833 c-4 -3 -7 -12 -7 -20 0 -15 26 -18 34 -4 7 11 -18 33 -27
24z"/>
<path d="M740 830 c-12 -7 -12 -12 -2 -22 9 -9 15 -9 24 0 16 16 -2 34 -22 22z"/>
<path d="M841 826 c-12 -14 -5 -26 16 -26 15 0 18 26 4 34 -5 3 -14 0 -20 -8z"/>
<path d="M1197 823 c-13 -12 -7 -23 13 -23 11 0 20 6 21 13 0 6 4 3 9 -8 8
-19 9 -19 9 3 1 17 -5 22 -22 22 -13 0 -27 -3 -30 -7z"/>
<path d="M1261 808 c0 -13 3 -17 6 -10 2 6 9 10 14 6 5 -3 9 2 9 10 0 9 -7 16
-15 16 -9 0 -15 -9 -14 -22z"/>
<path d="M1336 821 c-3 -5 2 -15 11 -22 12 -10 14 -10 9 -1 -4 7 -1 12 8 12 9
0 16 -6 17 -12 0 -7 4 -4 9 7 l9 20 0 -20 c1 -17 3 -17 11 -5 8 13 10 12 10
-4 0 -15 3 -16 15 -6 30 25 17 37 -39 39 -30 0 -57 -3 -60 -8z"/>
</g>
</svg>
